<svg xmlns="http://www.w3.org/2000/svg" width="40" height="40" fill="none" viewBox="0 0 40 40"><rect width="40" height="40" fill="#059762" rx="20"/><path fill="#059762" d="M18.681.037c11.501-.862 16.402 13.696 15.364 23.032-1.065 9.598-9.356 21.218-20.067 15.343C.204 30.858 2.673 1.236 18.68.037Zm-.003.975C3.994 2.422 2.862 34.121 16.722 38.444c9.84 3.07 15.134-9.19 15.53-17.005.395-7.746-3.662-21.378-13.576-20.427h.002Z"/><path fill="#F9FDFC" d="M18.678 1.012c9.913-.951 13.97 12.68 13.576 20.427-.398 7.815-5.69 20.076-15.53 17.005C2.864 34.121 3.996 2.422 18.68 1.012h-.002Zm4.074 6.606c.049-.148-.398-1.628-.414-1.866-.021-.304.585-.927-.035-1.28-.465-.262-2.512-.087-2.998.267-1.343.979-.186 2.817-.338 3.237-.243.67-1.891.934-2.542 1.388-.822.574-2.914 2.9-3.581 3.76-.51.656-1.617 2.812-2.009 3.13-.305.248-1.088.22-1.231.644-.591 1.744 1.344 2.363 2.27.963.645-.972 1.753-2.21 2.758-3.111.27-.243 1.855-1.506 2.052-1.54.36-.063.17.06.25.216.116.227.74 2.133.749 2.327.038.773-.663 1.977-.57 2.87.067.64 1.544 2.47 1.436 2.571-.047.044-.851.036-1.253.379-.129.11-1.17 1.856-1.19 1.992-.118.745 1.543-.726 1.79-.252-.31.482-2.047.891-2.115.988-.015.02.197.31.09.48-.105.172-.784.427-.91.327-.22-.174 2.722-4.52 2.613-4.973-.04-.165-.213-.107-.332-.005-.636.544-1.895 3.601-2.473 4.543-.416.678-1.209 1.26-1.53 1.895-.123.242-1.314 4.908-1.332 5.176-.016.248.297 1.243.55 1.34.467.175.961-.154 1.29-.118.675.07 2.006.736 2.606-.345.506-.912-.84-.264-.9-.33-.035-.038.086-.36-.1-.507-.3-.24-1.124.392-.812-.962.1-.436 1.347-2.769 1.657-3.25 1.038-1.614 2.686-2.986 3.578-4.748.307-.015 1.725 1.75 1.784 2.103.158.945-.19 2.682-.054 3.836.132 1.135.589 2.803.809 4.085.25 1.462 1.378.434 1.837.452.173.007.42.273.69.286.636.03 1.806.08 2.004-.754.24-1.012-.939-.093-1.247-.246-.065-.033-.897-.978-.938-1.103-.31-.99-.276-4.156-.243-5.317.016-.593.35-1.002.302-1.582-.103-1.228-1.614-3.644-2.253-4.777 1.545-.231 2.475-.6 3.178-2.04 1.803-3.698-.906-2.601-2.204-4.154-.606-.727-.622-2.108-1.165-2.914-.421-.624-2.249-1.293-.948-1.816.367-.149 1.073-.041 1.137-.087.036-.026-.091-.597-.021-.899.063-.274.3-.26.306-.28l.002.001Z"/><path fill="#059762" d="M22.752 7.618c-.006.02-.241.007-.307.28-.07.301.057.874.021.9-.065.047-.771-.06-1.137.086-1.3.524.529 1.193.948 1.816.544.806.558 2.19 1.165 2.914 1.299 1.553 4.007.458 2.204 4.154-.701 1.44-1.633 1.81-3.178 2.041.638 1.132 2.15 3.549 2.253 4.777.05.58-.285.989-.302 1.581-.032 1.162-.066 4.327.244 5.317.039.127.872 1.07.938 1.103.31.153 1.486-.765 1.246.246-.197.834-1.367.787-2.003.754-.268-.013-.518-.279-.69-.285-.459-.017-1.588 1.01-1.838-.452-.22-1.283-.675-2.95-.809-4.085-.135-1.154.212-2.892.054-3.836-.059-.354-1.477-2.118-1.783-2.103-.893 1.762-2.542 3.132-3.578 4.747-.31.482-1.557 2.815-1.658 3.25-.311 1.355.513.723.813.963.186.148.063.468.1.506.06.067 1.406-.581.9.331-.6 1.082-1.932.414-2.606.344-.33-.034-.824.294-1.29.118-.253-.096-.566-1.092-.55-1.34.018-.266 1.209-4.934 1.331-5.175.323-.635 1.116-1.217 1.53-1.896.578-.941 1.838-4 2.474-4.542.12-.101.292-.158.331.005.11.453-2.832 4.798-2.612 4.973.126.1.803-.152.91-.326.108-.175-.105-.462-.09-.482.068-.096 1.805-.507 2.115-.987-.246-.476-1.909.995-1.791.251.021-.135 1.06-1.88 1.19-1.992.402-.342 1.207-.334 1.254-.378.108-.101-1.369-1.932-1.436-2.572-.093-.894.607-2.096.57-2.87-.01-.194-.633-2.098-.75-2.326-.08-.157.11-.279-.249-.217-.197.034-1.782 1.297-2.052 1.54-1.005.902-2.115 2.14-2.758 3.112-.926 1.4-2.86.781-2.27-.963.143-.424.926-.396 1.231-.644.392-.319 1.498-2.474 2.008-3.13.668-.86 2.76-3.186 3.582-3.76.65-.454 2.298-.72 2.541-1.389.152-.42-1.003-2.258.338-3.237.485-.354 2.534-.528 2.999-.266.62.351.013.976.034 1.28.017.238.465 1.717.415 1.866l-.002-.002Zm-.449-1.27c.031-.025-.285-.652-.487-.65-.155.295.259.848.487.65Zm-1.631.004c-.312-.311-.774.723-.243.814.083.015.272-.783.243-.814Zm1.467.49c-.266-.413-.442.365-.16.65.18.182.236-.531.16-.65Zm-2.284 1.305c-.146-.163-.939.621-.975.739-.086.284.787.573.895.887.522-.344-.196-.482-.227-.753-.023-.2.488-.672.308-.875l-.002.002Zm5.22 7.179c.405.424-.993 1.796-2.528.652-.968-.72-2.084-3.827-2.934-5.066-.034-.05-.364-.532-.392-.564a4.25 4.25 0 0 0-.832-.733c1.492 2.434.384 10.605 5.061 9.386.486-.127 1.66-1.168 1.788-1.64.14-.515-1.037.11-.572-.733.235-.428.845-.284.917-.728.186-1.147-.929-1.243-1.317-.328.198.106.653-.413.811-.246h-.002Zm-9.46-4.246c.089.08 1.326-.53 1.396-.647.1-.168-.256-.65-.336-.653-.084-.003-1.222 1.15-1.06 1.3Zm6.85 1.47c-.193-.669-.32-1.595-.976-1.958.084.653.468 1.514.976 1.958Zm-7.016-1.303c-.171-.18-.926.631-.977.812.277.118 1.194-.585.977-.812Zm-1.466 1.794c-.319-.28-1.687 1.33-1.63 1.793.274-.097 1.771-1.667 1.63-1.793Zm-2.283 2.77c.118.113.808-.301.811-.405.016-.581-1.103.125-.81.406Zm.323.98c.237-.24-.364-.82-.57-.811-.585.023.363 1.021.57.81Zm-.979-.16c-.692-.59-2.375 1.883-.403.499.095-.067.653-.285.403-.5Zm.491.98c-.146-.158-1.45-.323-1.303.323.318-.292 1.74.149 1.303-.323Zm11.909 5.706c-.217-.304-1.857-4.043-2.283-3.588-.125.136 1.501 2.995 1.723 3.252.159.184.26.398.56.336Zm-.488 3.101c-.117.021-.653-.032-.653 0v2.53c0 .071.284 1.33.328 1.386.01.013.325.016.325 0v-3.916Zm-8.486.327c-.022-.022-.566-.028-.633.02-.135.097-.967 3.138-.835 3.241.212.163.475-.06.622-.274.161-.238.975-2.862.846-2.987Zm-1.142 3.754c-.275-.245-.734.207-.487.488.153.174.662-.332.487-.488Zm10.12 1.14c.296-.174.69-.47.648-.816-.297.175-.69.47-.649.816Zm.812.002c-.165-.155-.738.42-.815.65.323.174 1.022-.458.815-.65Z"/><path fill="#F9FDFC" d="M22.956 26.418v3.916c0 .016-.315.013-.325 0-.044-.055-.328-1.317-.328-1.387v-2.529c0-.032.535.021.653 0ZM14.47 26.745c.13.125-.683 2.747-.846 2.987-.146.215-.41.439-.622.274-.132-.103.7-3.142.835-3.242.067-.049.61-.042.633-.02ZM23.444 23.317c-.3.064-.401-.152-.56-.336-.22-.256-1.848-3.117-1.723-3.252.426-.455 2.066 3.284 2.283 3.588ZM19.854 8.147c.181.202-.33.674-.308.874.033.271.749.41.227.754-.108-.316-.98-.605-.894-.887.036-.118.828-.903.974-.74l.001-.001ZM15.616 11.08c-.163-.15.975-1.303 1.059-1.3.078.003.435.485.336.653-.07.119-1.307.729-1.395.647ZM13.983 13.041c.142.126-1.354 1.694-1.63 1.794-.057-.464 1.312-2.074 1.63-1.794ZM11.044 16.63c.25.215-.308.433-.403.5-1.972 1.385-.289-1.088.403-.5ZM22.465 12.55c-.508-.443-.892-1.305-.976-1.958.656.363.782 1.29.976 1.958ZM11.535 17.611c.438.472-.983.031-1.303.323-.147-.646 1.157-.48 1.303-.323ZM12.023 16.79c-.207.211-1.155-.786-.57-.81.208-.008.807.57.57.81ZM15.45 11.247c.216.228-.7.93-.978.812.05-.18.808-.993.977-.812ZM11.7 15.812c-.29-.28.827-.987.81-.406-.002.106-.692.52-.81.406ZM24.26 31.64c.205.195-.492.827-.815.65.077-.23.65-.806.815-.65ZM20.672 6.352c.03.03-.16.829-.243.814-.53-.09-.069-1.125.243-.814ZM13.328 30.499c.175.157-.334.662-.487.488-.247-.28.212-.733.487-.488ZM23.447 31.64c-.04-.347.35-.642.65-.817.04.346-.351.642-.65.816ZM22.303 6.349c-.226.197-.64-.356-.488-.651.203-.002.52.625.488.65ZM22.139 6.842c.076.119.02.832-.16.65-.283-.285-.106-1.063.16-.65Z"/><path fill="#F9FDFC" d="M25.075 15.326c-.16-.167-.613.35-.81.246.388-.917 1.504-.819 1.316.328-.072.445-.682.3-.917.728-.465.843.713.218.573.734-.129.471-1.3 1.512-1.788 1.64-4.678 1.218-3.57-6.952-5.061-9.387.275.183.625.482.832.733.027.034.357.514.391.564.85 1.24 1.966 4.347 2.934 5.066 1.535 1.144 2.933-.228 2.529-.652h.001Zm-5.707-4.242c.66 1.157 1.1 7.399 3.32 6.674.883-.287-.7-.918-.952-1.134-1.48-1.256-1.134-4.062-2.37-5.542l.002.002Z"/><path fill="#059762" d="M19.368 11.084c1.235 1.48.89 4.286 2.37 5.542.252.214 1.835.845.952 1.134-2.22.724-2.663-5.518-3.32-6.675l-.002-.001Z"/></svg>